<svg width="1440" height="297" viewBox="0 0 1440 297" fill="none" xmlns="http://www.w3.org/2000/svg">
<g filter="url(#filter0_d_82_4)">
<path d="M1518 294C1518 216.026 1433.93 141.246 1284.27 86.1106C1134.62 30.9749 931.643 5.88685e-06 720 0C508.357 -5.88685e-06 305.383 30.9749 155.729 86.1106C6.07481 141.246 -78 216.026 -78 294L720 294H1518Z" fill="#17A3B8"/>
<path d="M1518 294C1518 216.026 1433.93 141.246 1284.27 86.1106C1134.62 30.9749 931.643 5.88685e-06 720 0C508.357 -5.88685e-06 305.383 30.9749 155.729 86.1106C6.07481 141.246 -78 216.026 -78 294L720 294H1518Z" fill="#025888" fill-opacity="0.5"/>
</g>
<defs>
<filter id="filter0_d_82_4" x="-82" y="0" width="1604" height="302" filterUnits="userSpaceOnUse" color-interpolation-filters="sRGB">
<feFlood flood-opacity="0" result="BackgroundImageFix"/>
<feColorMatrix in="SourceAlpha" type="matrix" values="0 0 0 0 0 0 0 0 0 0 0 0 0 0 0 0 0 0 127 0" result="hardAlpha"/>
<feOffset dy="4"/>
<feGaussianBlur stdDeviation="2"/>
<feComposite in2="hardAlpha" operator="out"/>
<feColorMatrix type="matrix" values="0 0 0 0 0 0 0 0 0 0 0 0 0 0 0 0 0 0 0.25 0"/>
<feBlend mode="normal" in2="BackgroundImageFix" result="effect1_dropShadow_82_4"/>
<feBlend mode="normal" in="SourceGraphic" in2="effect1_dropShadow_82_4" result="shape"/>
</filter>
</defs>
</svg>
