<svg width="285" height="121" viewBox="0 0 285 121" fill="none" xmlns="http://www.w3.org/2000/svg">
<path d="M16.0195 98.7461V104.254H15.5625C15.2188 102.816 14.5781 101.715 13.6406 100.949C12.7031 100.184 11.6406 99.8008 10.4531 99.8008C9.46094 99.8008 8.55078 100.086 7.72266 100.656C6.89453 101.227 6.28906 101.973 5.90625 102.895C5.41406 104.074 5.16797 105.387 5.16797 106.832C5.16797 108.254 5.34766 109.551 5.70703 110.723C6.06641 111.887 6.62891 112.77 7.39453 113.371C8.16016 113.965 9.15234 114.262 10.3711 114.262C11.3711 114.262 12.2852 114.043 13.1133 113.605C13.9492 113.168 14.8281 112.414 15.75 111.344V112.715C14.8594 113.645 13.9297 114.32 12.9609 114.742C12 115.156 10.875 115.363 9.58594 115.363C7.89062 115.363 6.38281 115.023 5.0625 114.344C3.75 113.664 2.73438 112.688 2.01562 111.414C1.30469 110.141 0.949219 108.785 0.949219 107.348C0.949219 105.832 1.34375 104.395 2.13281 103.035C2.92969 101.676 4 100.621 5.34375 99.8711C6.69531 99.1211 8.12891 98.7461 9.64453 98.7461C10.7617 98.7461 11.9414 98.9883 13.1836 99.4727C13.9023 99.7539 14.3594 99.8945 14.5547 99.8945C14.8047 99.8945 15.0195 99.8047 15.1992 99.625C15.3867 99.4375 15.5078 99.1445 15.5625 98.7461H16.0195ZM22.7203 103.715C23.6734 103.715 24.5602 103.961 25.3805 104.453C26.2008 104.945 26.8219 105.645 27.2437 106.551C27.6734 107.457 27.8883 108.449 27.8883 109.527C27.8883 111.082 27.4937 112.383 26.7047 113.43C25.7516 114.695 24.4352 115.328 22.7555 115.328C21.107 115.328 19.8375 114.75 18.9469 113.594C18.0562 112.438 17.6109 111.098 17.6109 109.574C17.6109 108.004 18.0641 106.637 18.9703 105.473C19.8844 104.301 21.1344 103.715 22.7203 103.715ZM22.7672 104.547C22.3687 104.547 22.025 104.699 21.7359 105.004C21.4547 105.301 21.2672 105.895 21.1734 106.785C21.0875 107.668 21.0445 108.898 21.0445 110.477C21.0445 111.312 21.0992 112.094 21.2086 112.82C21.2945 113.375 21.4781 113.797 21.7594 114.086C22.0406 114.375 22.3609 114.52 22.7203 114.52C23.0719 114.52 23.3648 114.422 23.5992 114.227C23.9039 113.961 24.107 113.59 24.2086 113.113C24.3648 112.371 24.443 110.871 24.443 108.613C24.443 107.285 24.3687 106.375 24.2203 105.883C24.0719 105.383 23.8531 105.02 23.5641 104.793C23.3609 104.629 23.0953 104.547 22.7672 104.547ZM33.4992 104.043V106.527C34.2258 105.395 34.8625 104.645 35.4094 104.277C35.9562 103.902 36.4836 103.715 36.9914 103.715C37.4289 103.715 37.7766 103.852 38.0344 104.125C38.3 104.391 38.4328 104.77 38.4328 105.262C38.4328 105.785 38.3039 106.191 38.0461 106.48C37.7961 106.77 37.4914 106.914 37.132 106.914C36.718 106.914 36.3586 106.781 36.0539 106.516C35.7492 106.25 35.5695 106.102 35.5148 106.07C35.4367 106.023 35.3469 106 35.2453 106C35.0187 106 34.8039 106.086 34.6008 106.258C34.2805 106.523 34.0383 106.902 33.8742 107.395C33.6242 108.152 33.4992 108.988 33.4992 109.902V112.422L33.5109 113.078C33.5109 113.523 33.5383 113.809 33.593 113.934C33.6867 114.145 33.8234 114.301 34.0031 114.402C34.1906 114.496 34.5031 114.555 34.9406 114.578V115H29.0227V114.578C29.4992 114.539 29.8195 114.41 29.9836 114.191C30.1555 113.965 30.2414 113.375 30.2414 112.422V106.363C30.2414 105.738 30.2102 105.34 30.1477 105.168C30.0695 104.949 29.9562 104.789 29.8078 104.688C29.6594 104.586 29.3977 104.516 29.0227 104.477V104.043H33.4992ZM43.2586 113.887V117.965C43.2586 118.527 43.3016 118.91 43.3875 119.113C43.4813 119.316 43.6219 119.465 43.8094 119.559C43.9969 119.652 44.3641 119.699 44.9109 119.699V120.133H38.6648V119.699C39.1492 119.684 39.5086 119.547 39.743 119.289C39.8992 119.109 39.9773 118.645 39.9773 117.895V106.328C39.9773 105.555 39.8875 105.062 39.7078 104.852C39.5281 104.633 39.1805 104.508 38.6648 104.477V104.043H43.2586V105.484C43.6414 104.922 44.032 104.516 44.4305 104.266C45.0008 103.898 45.6219 103.715 46.2938 103.715C47.0984 103.715 47.8289 103.969 48.4852 104.477C49.1492 104.984 49.6531 105.688 49.9969 106.586C50.3406 107.477 50.5125 108.438 50.5125 109.469C50.5125 110.578 50.3328 111.594 49.9734 112.516C49.6219 113.43 49.1063 114.129 48.4266 114.613C47.7547 115.09 47.0047 115.328 46.1766 115.328C45.575 115.328 45.0125 115.195 44.4891 114.93C44.0984 114.727 43.6883 114.379 43.2586 113.887ZM43.2586 112.703C43.9305 113.656 44.6492 114.133 45.4148 114.133C45.8367 114.133 46.1844 113.91 46.4578 113.465C46.8641 112.809 47.0672 111.559 47.0672 109.715C47.0672 107.824 46.8445 106.531 46.3992 105.836C46.1023 105.375 45.7039 105.145 45.2039 105.145C44.4148 105.145 43.7664 105.715 43.2586 106.855V112.703ZM56.9437 103.715C57.8969 103.715 58.7836 103.961 59.6039 104.453C60.4242 104.945 61.0453 105.645 61.4672 106.551C61.8969 107.457 62.1117 108.449 62.1117 109.527C62.1117 111.082 61.7172 112.383 60.9281 113.43C59.975 114.695 58.6586 115.328 56.9789 115.328C55.3305 115.328 54.0609 114.75 53.1703 113.594C52.2797 112.438 51.8344 111.098 51.8344 109.574C51.8344 108.004 52.2875 106.637 53.1937 105.473C54.1078 104.301 55.3578 103.715 56.9437 103.715ZM56.9906 104.547C56.5922 104.547 56.2484 104.699 55.9594 105.004C55.6781 105.301 55.4906 105.895 55.3969 106.785C55.3109 107.668 55.268 108.898 55.268 110.477C55.268 111.312 55.3227 112.094 55.432 112.82C55.518 113.375 55.7016 113.797 55.9828 114.086C56.2641 114.375 56.5844 114.52 56.9437 114.52C57.2953 114.52 57.5883 114.422 57.8227 114.227C58.1273 113.961 58.3305 113.59 58.432 113.113C58.5883 112.371 58.6664 110.871 58.6664 108.613C58.6664 107.285 58.5922 106.375 58.4437 105.883C58.2953 105.383 58.0766 105.02 57.7875 104.793C57.5844 104.629 57.3187 104.547 56.9906 104.547ZM67.7227 104.043V106.527C68.4492 105.395 69.0859 104.645 69.6328 104.277C70.1797 103.902 70.707 103.715 71.2148 103.715C71.6523 103.715 72 103.852 72.2578 104.125C72.5234 104.391 72.6562 104.77 72.6562 105.262C72.6562 105.785 72.5273 106.191 72.2695 106.48C72.0195 106.77 71.7148 106.914 71.3555 106.914C70.9414 106.914 70.582 106.781 70.2773 106.516C69.9727 106.25 69.793 106.102 69.7383 106.07C69.6602 106.023 69.5703 106 69.4688 106C69.2422 106 69.0273 106.086 68.8242 106.258C68.5039 106.523 68.2617 106.902 68.0977 107.395C67.8477 108.152 67.7227 108.988 67.7227 109.902V112.422L67.7344 113.078C67.7344 113.523 67.7617 113.809 67.8164 113.934C67.9102 114.145 68.0469 114.301 68.2266 114.402C68.4141 114.496 68.7266 114.555 69.1641 114.578V115H63.2461V114.578C63.7227 114.539 64.043 114.41 64.207 114.191C64.3789 113.965 64.4648 113.375 64.4648 112.422V106.363C64.4648 105.738 64.4336 105.34 64.3711 105.168C64.293 104.949 64.1797 104.789 64.0312 104.688C63.8828 104.586 63.6211 104.516 63.2461 104.477V104.043H67.7227ZM79.2867 113.383C77.9508 114.562 76.7516 115.152 75.6891 115.152C75.0641 115.152 74.5445 114.949 74.1305 114.543C73.7164 114.129 73.5094 113.613 73.5094 112.996C73.5094 112.16 73.8688 111.41 74.5875 110.746C75.3063 110.074 76.8727 109.184 79.2867 108.074V106.973C79.2867 106.145 79.2398 105.625 79.1461 105.414C79.0602 105.195 78.8922 105.008 78.6422 104.852C78.3922 104.688 78.1109 104.605 77.7984 104.605C77.2906 104.605 76.8727 104.719 76.5445 104.945C76.3414 105.086 76.2398 105.25 76.2398 105.438C76.2398 105.602 76.3492 105.805 76.568 106.047C76.8648 106.383 77.0133 106.707 77.0133 107.02C77.0133 107.402 76.8688 107.73 76.5797 108.004C76.2984 108.27 75.9273 108.402 75.4664 108.402C74.9742 108.402 74.5602 108.254 74.2242 107.957C73.8961 107.66 73.732 107.312 73.732 106.914C73.732 106.352 73.9547 105.816 74.4 105.309C74.8453 104.793 75.4664 104.398 76.2633 104.125C77.0602 103.852 77.8883 103.715 78.7477 103.715C79.7867 103.715 80.607 103.938 81.2086 104.383C81.818 104.82 82.2125 105.297 82.3922 105.812C82.5016 106.141 82.5563 106.895 82.5563 108.074V112.328C82.5563 112.828 82.5758 113.145 82.6148 113.277C82.6539 113.402 82.7125 113.496 82.7906 113.559C82.8688 113.621 82.9586 113.652 83.0602 113.652C83.2633 113.652 83.4703 113.508 83.6813 113.219L84.0328 113.5C83.6422 114.078 83.2359 114.5 82.8141 114.766C82.4 115.023 81.9273 115.152 81.3961 115.152C80.7711 115.152 80.2828 115.008 79.9313 114.719C79.5797 114.422 79.3648 113.977 79.2867 113.383ZM79.2867 112.527V108.859C78.3414 109.414 77.6383 110.008 77.1773 110.641C76.8727 111.062 76.7203 111.488 76.7203 111.918C76.7203 112.277 76.8492 112.594 77.107 112.867C77.3023 113.078 77.5758 113.184 77.9273 113.184C78.318 113.184 78.7711 112.965 79.2867 112.527ZM93.5813 112.176L93.9445 112.457C93.4289 113.426 92.7844 114.148 92.0109 114.625C91.2453 115.094 90.4289 115.328 89.5617 115.328C88.1008 115.328 86.9328 114.777 86.0578 113.676C85.1828 112.574 84.7453 111.25 84.7453 109.703C84.7453 108.211 85.1438 106.898 85.9406 105.766C86.9016 104.398 88.2258 103.715 89.9133 103.715C91.0461 103.715 91.9445 104 92.6086 104.57C93.2805 105.141 93.6164 105.777 93.6164 106.48C93.6164 106.926 93.4797 107.281 93.2063 107.547C92.9406 107.812 92.5891 107.945 92.1516 107.945C91.6906 107.945 91.3078 107.793 91.0031 107.488C90.7063 107.184 90.5227 106.641 90.4523 105.859C90.4055 105.367 90.2922 105.023 90.1125 104.828C89.9328 104.633 89.7219 104.535 89.4797 104.535C89.1047 104.535 88.7844 104.734 88.5188 105.133C88.1125 105.734 87.9094 106.656 87.9094 107.898C87.9094 108.93 88.0734 109.918 88.4016 110.863C88.7297 111.801 89.1789 112.5 89.7492 112.961C90.1789 113.297 90.6867 113.465 91.2727 113.465C91.6555 113.465 92.0188 113.375 92.3625 113.195C92.7063 113.016 93.1125 112.676 93.5813 112.176ZM97.3406 98.7344C97.8484 98.7344 98.2781 98.9141 98.6297 99.2734C98.9812 99.625 99.157 100.051 99.157 100.551C99.157 101.051 98.9773 101.477 98.618 101.828C98.2664 102.18 97.8406 102.355 97.3406 102.355C96.8406 102.355 96.4148 102.18 96.0633 101.828C95.7117 101.477 95.5359 101.051 95.5359 100.551C95.5359 100.051 95.7117 99.625 96.0633 99.2734C96.4148 98.9141 96.8406 98.7344 97.3406 98.7344ZM98.9812 104.043V112.727C98.9812 113.5 99.0711 113.996 99.2508 114.215C99.4305 114.426 99.782 114.547 100.305 114.578V115H94.3875V114.578C94.8719 114.562 95.2312 114.422 95.4656 114.156C95.6219 113.977 95.7 113.5 95.7 112.727V106.328C95.7 105.555 95.6102 105.062 95.4305 104.852C95.2508 104.633 94.9031 104.508 94.3875 104.477V104.043H98.9812ZM105.952 103.715C106.905 103.715 107.791 103.961 108.612 104.453C109.432 104.945 110.053 105.645 110.475 106.551C110.905 107.457 111.12 108.449 111.12 109.527C111.12 111.082 110.725 112.383 109.936 113.43C108.983 114.695 107.666 115.328 105.987 115.328C104.338 115.328 103.069 114.75 102.178 113.594C101.287 112.438 100.842 111.098 100.842 109.574C100.842 108.004 101.295 106.637 102.202 105.473C103.116 104.301 104.366 103.715 105.952 103.715ZM105.998 104.547C105.6 104.547 105.256 104.699 104.967 105.004C104.686 105.301 104.498 105.895 104.405 106.785C104.319 107.668 104.276 108.898 104.276 110.477C104.276 111.312 104.33 112.094 104.44 112.82C104.526 113.375 104.709 113.797 104.991 114.086C105.272 114.375 105.592 114.52 105.952 114.52C106.303 114.52 106.596 114.422 106.83 114.227C107.135 113.961 107.338 113.59 107.44 113.113C107.596 112.371 107.674 110.871 107.674 108.613C107.674 107.285 107.6 106.375 107.452 105.883C107.303 105.383 107.084 105.02 106.795 104.793C106.592 104.629 106.327 104.547 105.998 104.547ZM109.526 98.5703L105.647 102.637H104.639L105.998 98.5703H109.526ZM116.66 104.043V105.461C117.223 104.852 117.762 104.41 118.277 104.137C118.793 103.855 119.348 103.715 119.941 103.715C120.652 103.715 121.242 103.914 121.711 104.312C122.18 104.703 122.492 105.191 122.648 105.777C122.773 106.223 122.836 107.078 122.836 108.344V112.609C122.836 113.453 122.91 113.98 123.059 114.191C123.215 114.395 123.535 114.523 124.02 114.578V115H118.477V114.578C118.891 114.523 119.188 114.352 119.367 114.062C119.492 113.867 119.555 113.383 119.555 112.609V107.734C119.555 106.836 119.52 106.27 119.449 106.035C119.379 105.801 119.258 105.621 119.086 105.496C118.922 105.363 118.738 105.297 118.535 105.297C117.863 105.297 117.238 105.777 116.66 106.738V112.609C116.66 113.43 116.734 113.949 116.883 114.168C117.039 114.387 117.324 114.523 117.738 114.578V115H112.195V114.578C112.656 114.531 112.984 114.383 113.18 114.133C113.312 113.961 113.379 113.453 113.379 112.609V106.422C113.379 105.594 113.301 105.078 113.145 104.875C112.996 104.672 112.68 104.539 112.195 104.477V104.043H116.66ZM138.804 98.8867C141.335 98.793 143.39 99.5312 144.968 101.102C146.554 102.672 147.347 104.637 147.347 106.996C147.347 109.012 146.757 110.785 145.577 112.316C144.015 114.348 141.808 115.363 138.956 115.363C136.097 115.363 133.886 114.395 132.323 112.457C131.089 110.926 130.472 109.109 130.472 107.008C130.472 104.648 131.273 102.684 132.874 101.113C134.484 99.5352 136.46 98.793 138.804 98.8867ZM138.945 99.6367C137.491 99.6367 136.386 100.379 135.628 101.863C135.011 103.082 134.702 104.832 134.702 107.113C134.702 109.824 135.179 111.828 136.132 113.125C136.796 114.031 137.726 114.484 138.921 114.484C139.726 114.484 140.398 114.289 140.937 113.898C141.624 113.398 142.159 112.602 142.542 111.508C142.925 110.406 143.116 108.973 143.116 107.207C143.116 105.105 142.921 103.535 142.53 102.496C142.14 101.449 141.64 100.711 141.03 100.281C140.429 99.8516 139.734 99.6367 138.945 99.6367ZM154.47 113.383C153.134 114.562 151.934 115.152 150.872 115.152C150.247 115.152 149.727 114.949 149.313 114.543C148.899 114.129 148.692 113.613 148.692 112.996C148.692 112.16 149.052 111.41 149.77 110.746C150.489 110.074 152.055 109.184 154.47 108.074V106.973C154.47 106.145 154.423 105.625 154.329 105.414C154.243 105.195 154.075 105.008 153.825 104.852C153.575 104.688 153.294 104.605 152.981 104.605C152.473 104.605 152.055 104.719 151.727 104.945C151.524 105.086 151.423 105.25 151.423 105.438C151.423 105.602 151.532 105.805 151.751 106.047C152.048 106.383 152.196 106.707 152.196 107.02C152.196 107.402 152.052 107.73 151.762 108.004C151.481 108.27 151.11 108.402 150.649 108.402C150.157 108.402 149.743 108.254 149.407 107.957C149.079 107.66 148.915 107.312 148.915 106.914C148.915 106.352 149.137 105.816 149.583 105.309C150.028 104.793 150.649 104.398 151.446 104.125C152.243 103.852 153.071 103.715 153.93 103.715C154.97 103.715 155.79 103.938 156.391 104.383C157.001 104.82 157.395 105.297 157.575 105.812C157.684 106.141 157.739 106.895 157.739 108.074V112.328C157.739 112.828 157.759 113.145 157.798 113.277C157.837 113.402 157.895 113.496 157.973 113.559C158.052 113.621 158.141 113.652 158.243 113.652C158.446 113.652 158.653 113.508 158.864 113.219L159.216 113.5C158.825 114.078 158.419 114.5 157.997 114.766C157.583 115.023 157.11 115.152 156.579 115.152C155.954 115.152 155.466 115.008 155.114 114.719C154.762 114.422 154.548 113.977 154.47 113.383ZM154.47 112.527V108.859C153.524 109.414 152.821 110.008 152.36 110.641C152.055 111.062 151.903 111.488 151.903 111.918C151.903 112.277 152.032 112.594 152.29 112.867C152.485 113.078 152.759 113.184 153.11 113.184C153.501 113.184 153.954 112.965 154.47 112.527ZM166.748 103.738L166.924 107.477H166.526C166.049 106.367 165.553 105.609 165.038 105.203C164.53 104.797 164.022 104.594 163.514 104.594C163.194 104.594 162.92 104.703 162.694 104.922C162.467 105.133 162.354 105.379 162.354 105.66C162.354 105.871 162.432 106.074 162.588 106.27C162.838 106.59 163.538 107.141 164.686 107.922C165.834 108.695 166.588 109.355 166.948 109.902C167.315 110.441 167.498 111.047 167.498 111.719C167.498 112.328 167.346 112.926 167.041 113.512C166.737 114.098 166.307 114.547 165.752 114.859C165.198 115.172 164.584 115.328 163.913 115.328C163.389 115.328 162.69 115.164 161.815 114.836C161.58 114.75 161.42 114.707 161.334 114.707C161.077 114.707 160.862 114.902 160.69 115.293H160.303L160.116 111.355H160.514C160.866 112.387 161.346 113.16 161.955 113.676C162.573 114.191 163.155 114.449 163.702 114.449C164.077 114.449 164.381 114.336 164.616 114.109C164.858 113.875 164.979 113.594 164.979 113.266C164.979 112.891 164.862 112.566 164.627 112.293C164.393 112.02 163.87 111.605 163.057 111.051C161.862 110.223 161.088 109.59 160.737 109.152C160.221 108.512 159.963 107.805 159.963 107.031C159.963 106.188 160.252 105.426 160.83 104.746C161.416 104.059 162.26 103.715 163.362 103.715C163.955 103.715 164.53 103.859 165.084 104.148C165.295 104.266 165.467 104.324 165.6 104.324C165.741 104.324 165.854 104.297 165.94 104.242C166.026 104.18 166.163 104.012 166.35 103.738H166.748ZM171.211 98.7344C171.719 98.7344 172.148 98.9141 172.5 99.2734C172.852 99.625 173.027 100.051 173.027 100.551C173.027 101.051 172.848 101.477 172.488 101.828C172.137 102.18 171.711 102.355 171.211 102.355C170.711 102.355 170.285 102.18 169.934 101.828C169.582 101.477 169.406 101.051 169.406 100.551C169.406 100.051 169.582 99.625 169.934 99.2734C170.285 98.9141 170.711 98.7344 171.211 98.7344ZM172.852 104.043V112.727C172.852 113.5 172.941 113.996 173.121 114.215C173.301 114.426 173.652 114.547 174.176 114.578V115H168.258V114.578C168.742 114.562 169.102 114.422 169.336 114.156C169.492 113.977 169.57 113.5 169.57 112.727V106.328C169.57 105.555 169.48 105.062 169.301 104.852C169.121 104.633 168.773 104.508 168.258 104.477V104.043H172.852ZM181.58 103.738L181.755 107.477H181.357C180.88 106.367 180.384 105.609 179.869 105.203C179.361 104.797 178.853 104.594 178.345 104.594C178.025 104.594 177.752 104.703 177.525 104.922C177.298 105.133 177.185 105.379 177.185 105.66C177.185 105.871 177.263 106.074 177.42 106.27C177.67 106.59 178.369 107.141 179.517 107.922C180.666 108.695 181.42 109.355 181.779 109.902C182.146 110.441 182.33 111.047 182.33 111.719C182.33 112.328 182.177 112.926 181.873 113.512C181.568 114.098 181.138 114.547 180.584 114.859C180.029 115.172 179.416 115.328 178.744 115.328C178.22 115.328 177.521 115.164 176.646 114.836C176.412 114.75 176.252 114.707 176.166 114.707C175.908 114.707 175.693 114.902 175.521 115.293H175.134L174.947 111.355H175.345C175.697 112.387 176.177 113.16 176.787 113.676C177.404 114.191 177.986 114.449 178.533 114.449C178.908 114.449 179.212 114.336 179.447 114.109C179.689 113.875 179.81 113.594 179.81 113.266C179.81 112.891 179.693 112.566 179.459 112.293C179.224 112.02 178.701 111.605 177.888 111.051C176.693 110.223 175.92 109.59 175.568 109.152C175.052 108.512 174.795 107.805 174.795 107.031C174.795 106.188 175.084 105.426 175.662 104.746C176.248 104.059 177.091 103.715 178.193 103.715C178.787 103.715 179.361 103.859 179.916 104.148C180.127 104.266 180.298 104.324 180.431 104.324C180.572 104.324 180.685 104.297 180.771 104.242C180.857 104.18 180.994 104.012 181.181 103.738H181.58ZM199.458 99.1094V111.719C199.458 112.57 199.481 113.074 199.528 113.23C199.591 113.488 199.708 113.68 199.88 113.805C200.059 113.93 200.368 114.008 200.805 114.039V114.426L196.177 115.328V113.594C195.622 114.266 195.126 114.723 194.688 114.965C194.259 115.207 193.77 115.328 193.223 115.328C191.825 115.328 190.72 114.703 189.907 113.453C189.251 112.438 188.923 111.191 188.923 109.715C188.923 108.535 189.126 107.48 189.532 106.551C189.938 105.613 190.493 104.906 191.196 104.43C191.907 103.953 192.669 103.715 193.481 103.715C194.005 103.715 194.47 103.816 194.876 104.02C195.282 104.223 195.716 104.578 196.177 105.086V101.781C196.177 100.945 196.141 100.441 196.071 100.27C195.977 100.043 195.837 99.875 195.649 99.7656C195.462 99.6562 195.11 99.6016 194.595 99.6016V99.1094H199.458ZM196.177 106.539C195.598 105.43 194.891 104.875 194.055 104.875C193.766 104.875 193.528 104.953 193.341 105.109C193.052 105.352 192.813 105.777 192.626 106.387C192.446 106.996 192.356 107.93 192.356 109.188C192.356 110.57 192.458 111.594 192.661 112.258C192.864 112.922 193.141 113.402 193.493 113.699C193.673 113.848 193.919 113.922 194.231 113.922C194.919 113.922 195.567 113.383 196.177 112.305V106.539ZM210.846 109.129H204.834C204.905 110.582 205.291 111.73 205.995 112.574C206.534 113.223 207.182 113.547 207.94 113.547C208.409 113.547 208.834 113.418 209.217 113.16C209.6 112.895 210.01 112.422 210.448 111.742L210.846 112C210.252 113.211 209.596 114.07 208.877 114.578C208.159 115.078 207.327 115.328 206.381 115.328C204.756 115.328 203.526 114.703 202.69 113.453C202.018 112.445 201.682 111.195 201.682 109.703C201.682 107.875 202.174 106.422 203.159 105.344C204.151 104.258 205.311 103.715 206.639 103.715C207.748 103.715 208.709 104.172 209.522 105.086C210.342 105.992 210.784 107.34 210.846 109.129ZM207.963 108.344C207.963 107.086 207.893 106.223 207.752 105.754C207.62 105.285 207.409 104.93 207.12 104.688C206.955 104.547 206.737 104.477 206.463 104.477C206.057 104.477 205.725 104.676 205.467 105.074C205.006 105.77 204.776 106.723 204.776 107.934V108.344H207.963ZM227.494 98.7461L227.623 104.043H227.142C226.916 102.715 226.357 101.648 225.466 100.844C224.584 100.031 223.627 99.625 222.595 99.625C221.798 99.625 221.166 99.8398 220.697 100.27C220.236 100.691 220.005 101.18 220.005 101.734C220.005 102.086 220.087 102.398 220.252 102.672C220.478 103.039 220.841 103.402 221.341 103.762C221.709 104.02 222.556 104.477 223.884 105.133C225.744 106.047 226.998 106.91 227.646 107.723C228.287 108.535 228.607 109.465 228.607 110.512C228.607 111.84 228.087 112.984 227.048 113.945C226.017 114.898 224.705 115.375 223.111 115.375C222.611 115.375 222.138 115.324 221.693 115.223C221.248 115.121 220.689 114.93 220.017 114.648C219.642 114.492 219.334 114.414 219.091 114.414C218.888 114.414 218.673 114.492 218.447 114.648C218.22 114.805 218.037 115.043 217.896 115.363H217.462V109.363H217.896C218.24 111.051 218.9 112.34 219.877 113.23C220.861 114.113 221.92 114.555 223.052 114.555C223.927 114.555 224.623 114.316 225.138 113.84C225.662 113.363 225.923 112.809 225.923 112.176C225.923 111.801 225.822 111.438 225.619 111.086C225.423 110.734 225.123 110.402 224.716 110.09C224.31 109.77 223.591 109.355 222.56 108.848C221.115 108.137 220.076 107.531 219.443 107.031C218.81 106.531 218.322 105.973 217.978 105.355C217.642 104.738 217.474 104.059 217.474 103.316C217.474 102.051 217.939 100.973 218.869 100.082C219.798 99.1914 220.97 98.7461 222.384 98.7461C222.9 98.7461 223.4 98.8086 223.884 98.9336C224.252 99.0273 224.697 99.2031 225.22 99.4609C225.752 99.7109 226.123 99.8359 226.334 99.8359C226.537 99.8359 226.697 99.7734 226.814 99.6484C226.931 99.5234 227.041 99.2227 227.142 98.7461H227.494ZM240.37 104.043V112.621C240.37 113.457 240.448 113.98 240.605 114.191C240.761 114.395 241.077 114.523 241.554 114.578V115H237.089V113.535C236.566 114.16 236.042 114.617 235.519 114.906C234.995 115.188 234.409 115.328 233.761 115.328C233.144 115.328 232.593 115.141 232.109 114.766C231.632 114.383 231.312 113.938 231.148 113.43C230.984 112.922 230.902 112.035 230.902 110.77V106.422C230.902 105.594 230.823 105.078 230.667 104.875C230.519 104.672 230.202 104.539 229.718 104.477V104.043H234.183V111.531C234.183 112.312 234.218 112.816 234.288 113.043C234.366 113.27 234.484 113.441 234.64 113.559C234.804 113.676 234.991 113.734 235.202 113.734C235.484 113.734 235.738 113.66 235.964 113.512C236.277 113.309 236.652 112.898 237.089 112.281V106.422C237.089 105.594 237.011 105.078 236.855 104.875C236.706 104.672 236.39 104.539 235.905 104.477V104.043H240.37ZM251.829 109.129H245.817C245.887 110.582 246.274 111.73 246.977 112.574C247.516 113.223 248.165 113.547 248.923 113.547C249.391 113.547 249.817 113.418 250.2 113.16C250.583 112.895 250.993 112.422 251.43 111.742L251.829 112C251.235 113.211 250.579 114.07 249.86 114.578C249.141 115.078 248.309 115.328 247.364 115.328C245.739 115.328 244.509 114.703 243.673 113.453C243.001 112.445 242.665 111.195 242.665 109.703C242.665 107.875 243.157 106.422 244.141 105.344C245.134 104.258 246.294 103.715 247.622 103.715C248.731 103.715 249.692 104.172 250.505 105.086C251.325 105.992 251.766 107.34 251.829 109.129ZM248.946 108.344C248.946 107.086 248.876 106.223 248.735 105.754C248.602 105.285 248.391 104.93 248.102 104.688C247.938 104.547 247.72 104.477 247.446 104.477C247.04 104.477 246.708 104.676 246.45 105.074C245.989 105.77 245.759 106.723 245.759 107.934V108.344H248.946ZM257.088 104.043V105.461C257.651 104.852 258.19 104.41 258.705 104.137C259.221 103.855 259.776 103.715 260.37 103.715C261.08 103.715 261.67 103.914 262.139 104.312C262.608 104.703 262.92 105.191 263.077 105.777C263.202 106.223 263.264 107.078 263.264 108.344V112.609C263.264 113.453 263.338 113.98 263.487 114.191C263.643 114.395 263.963 114.523 264.448 114.578V115H258.905V114.578C259.319 114.523 259.616 114.352 259.795 114.062C259.92 113.867 259.983 113.383 259.983 112.609V107.734C259.983 106.836 259.948 106.27 259.877 106.035C259.807 105.801 259.686 105.621 259.514 105.496C259.35 105.363 259.166 105.297 258.963 105.297C258.291 105.297 257.666 105.777 257.088 106.738V112.609C257.088 113.43 257.163 113.949 257.311 114.168C257.467 114.387 257.752 114.523 258.166 114.578V115H252.623V114.578C253.084 114.531 253.413 114.383 253.608 114.133C253.741 113.961 253.807 113.453 253.807 112.609V106.422C253.807 105.594 253.729 105.078 253.573 104.875C253.424 104.672 253.108 104.539 252.623 104.477V104.043H257.088ZM261.541 98.9453H262.163C262.17 99.1016 262.174 99.2344 262.174 99.3438C262.174 100.203 261.932 100.895 261.448 101.418C260.963 101.941 260.377 102.203 259.69 102.203C259.182 102.203 258.541 102.02 257.768 101.652C257.002 101.285 256.491 101.102 256.233 101.102C255.998 101.102 255.803 101.18 255.647 101.336C255.491 101.492 255.381 101.773 255.319 102.18H254.639C254.608 101.164 254.838 100.367 255.33 99.7891C255.83 99.2109 256.444 98.9219 257.17 98.9219C257.405 98.9219 257.6 98.9453 257.756 98.9922C257.975 99.0547 258.35 99.2109 258.881 99.4609C259.686 99.8281 260.26 100.012 260.604 100.012C260.776 100.012 260.94 99.9414 261.096 99.8008C261.252 99.6602 261.401 99.375 261.541 98.9453ZM270.539 103.715C271.492 103.715 272.379 103.961 273.199 104.453C274.02 104.945 274.641 105.645 275.062 106.551C275.492 107.457 275.707 108.449 275.707 109.527C275.707 111.082 275.312 112.383 274.523 113.43C273.57 114.695 272.254 115.328 270.574 115.328C268.926 115.328 267.656 114.75 266.766 113.594C265.875 112.438 265.43 111.098 265.43 109.574C265.43 108.004 265.883 106.637 266.789 105.473C267.703 104.301 268.953 103.715 270.539 103.715ZM270.586 104.547C270.188 104.547 269.844 104.699 269.555 105.004C269.273 105.301 269.086 105.895 268.992 106.785C268.906 107.668 268.863 108.898 268.863 110.477C268.863 111.312 268.918 112.094 269.027 112.82C269.113 113.375 269.297 113.797 269.578 114.086C269.859 114.375 270.18 114.52 270.539 114.52C270.891 114.52 271.184 114.422 271.418 114.227C271.723 113.961 271.926 113.59 272.027 113.113C272.184 112.371 272.262 110.871 272.262 108.613C272.262 107.285 272.188 106.375 272.039 105.883C271.891 105.383 271.672 105.02 271.383 104.793C271.18 104.629 270.914 104.547 270.586 104.547ZM283.697 103.738L283.873 107.477H283.474C282.998 106.367 282.502 105.609 281.986 105.203C281.478 104.797 280.97 104.594 280.462 104.594C280.142 104.594 279.869 104.703 279.642 104.922C279.416 105.133 279.302 105.379 279.302 105.66C279.302 105.871 279.38 106.074 279.537 106.27C279.787 106.59 280.486 107.141 281.634 107.922C282.783 108.695 283.537 109.355 283.896 109.902C284.263 110.441 284.447 111.047 284.447 111.719C284.447 112.328 284.295 112.926 283.99 113.512C283.685 114.098 283.255 114.547 282.701 114.859C282.146 115.172 281.533 115.328 280.861 115.328C280.337 115.328 279.638 115.164 278.763 114.836C278.529 114.75 278.369 114.707 278.283 114.707C278.025 114.707 277.81 114.902 277.638 115.293H277.252L277.064 111.355H277.462C277.814 112.387 278.295 113.16 278.904 113.676C279.521 114.191 280.103 114.449 280.65 114.449C281.025 114.449 281.33 114.336 281.564 114.109C281.806 113.875 281.927 113.594 281.927 113.266C281.927 112.891 281.81 112.566 281.576 112.293C281.341 112.02 280.818 111.605 280.005 111.051C278.81 110.223 278.037 109.59 277.685 109.152C277.17 108.512 276.912 107.805 276.912 107.031C276.912 106.188 277.201 105.426 277.779 104.746C278.365 104.059 279.209 103.715 280.31 103.715C280.904 103.715 281.478 103.859 282.033 104.148C282.244 104.266 282.416 104.324 282.548 104.324C282.689 104.324 282.802 104.297 282.888 104.242C282.974 104.18 283.111 104.012 283.298 103.738H283.697Z" fill="black"/>
<rect x="42" y="92" width="200" height="4" fill="black"/>
<path d="M101.078 21.9844V44.0156H99.25C97.875 38.2656 95.3125 33.8594 91.5625 30.7969C87.8125 27.7344 83.5625 26.2031 78.8125 26.2031C74.8438 26.2031 71.2031 27.3437 67.8906 29.625C64.5781 31.9063 62.1562 34.8906 60.625 38.5781C58.6562 43.2969 57.6719 48.5469 57.6719 54.3281C57.6719 60.0156 58.3906 65.2031 59.8281 69.8906C61.2656 74.5469 63.5156 78.0781 66.5781 80.4844C69.6406 82.8594 73.6094 84.0469 78.4844 84.0469C82.4844 84.0469 86.1406 83.1719 89.4531 81.4219C92.7969 79.6719 96.3125 76.6562 100 72.375V77.8594C96.4375 81.5781 92.7188 84.2812 88.8438 85.9688C85 87.625 80.5 88.4531 75.3438 88.4531C68.5625 88.4531 62.5312 87.0938 57.25 84.375C52 81.6562 47.9375 77.75 45.0625 72.6562C42.2188 67.5625 40.7969 62.1406 40.7969 56.3906C40.7969 50.3281 42.375 44.5781 45.5312 39.1406C48.7188 33.7031 53 29.4844 58.375 26.4844C63.7812 23.4844 69.5156 21.9844 75.5781 21.9844C80.0469 21.9844 84.7656 22.9531 89.7344 24.8906C92.6094 26.0156 94.4375 26.5781 95.2188 26.5781C96.2188 26.5781 97.0781 26.2187 97.7969 25.5C98.5469 24.75 99.0312 23.5781 99.25 21.9844H101.078Z" fill="#008000"/>
<path d="M141.053 22.5469C151.178 22.1719 159.397 25.125 165.709 31.4062C172.053 37.6875 175.225 45.5469 175.225 54.9844C175.225 63.0469 172.866 70.1406 168.147 76.2656C161.897 84.3906 153.069 88.4531 141.662 88.4531C130.225 88.4531 121.381 84.5781 115.131 76.8281C110.194 70.7031 107.725 63.4375 107.725 55.0312C107.725 45.5938 110.928 37.7344 117.334 31.4531C123.772 25.1406 131.678 22.1719 141.053 22.5469ZM141.616 25.5469C135.803 25.5469 131.381 28.5156 128.35 34.4531C125.881 39.3281 124.647 46.3281 124.647 55.4531C124.647 66.2969 126.553 74.3125 130.366 79.5C133.022 83.125 136.741 84.9375 141.522 84.9375C144.741 84.9375 147.428 84.1562 149.584 82.5938C152.334 80.5938 154.475 77.4062 156.006 73.0312C157.537 68.625 158.303 62.8906 158.303 55.8281C158.303 47.4219 157.522 41.1406 155.959 36.9844C154.397 32.7969 152.397 29.8438 149.959 28.125C147.553 26.4062 144.772 25.5469 141.616 25.5469Z" fill="#4B0082"/>
<path d="M221.387 21.9844L221.903 43.1719H219.981C219.075 37.8594 216.841 33.5938 213.278 30.375C209.747 27.125 205.919 25.5 201.794 25.5C198.606 25.5 196.075 26.3594 194.2 28.0781C192.356 29.7656 191.434 31.7188 191.434 33.9375C191.434 35.3438 191.762 36.5938 192.419 37.6875C193.325 39.1562 194.778 40.6094 196.778 42.0469C198.247 43.0781 201.637 44.9062 206.95 47.5312C214.387 51.1875 219.403 54.6406 221.997 57.8906C224.559 61.1406 225.841 64.8594 225.841 69.0469C225.841 74.3594 223.762 78.9375 219.606 82.7812C215.481 86.5938 210.231 88.5 203.856 88.5C201.856 88.5 199.966 88.2969 198.184 87.8906C196.403 87.4844 194.169 86.7188 191.481 85.5938C189.981 84.9688 188.747 84.6562 187.778 84.6562C186.966 84.6562 186.106 84.9688 185.2 85.5938C184.294 86.2188 183.559 87.1719 182.997 88.4531H181.262V64.4531H182.997C184.372 71.2031 187.012 76.3594 190.919 79.9219C194.856 83.4531 199.091 85.2188 203.622 85.2188C207.122 85.2188 209.903 84.2656 211.966 82.3594C214.059 80.4531 215.106 78.2344 215.106 75.7031C215.106 74.2031 214.7 72.75 213.887 71.3438C213.106 69.9375 211.903 68.6094 210.278 67.3594C208.653 66.0781 205.778 64.4219 201.653 62.3906C195.872 59.5469 191.716 57.125 189.184 55.125C186.653 53.125 184.7 50.8906 183.325 48.4219C181.981 45.9531 181.309 43.2344 181.309 40.2656C181.309 35.2031 183.169 30.8906 186.887 27.3281C190.606 23.7656 195.294 21.9844 200.95 21.9844C203.012 21.9844 205.012 22.2344 206.95 22.7344C208.419 23.1094 210.2 23.8125 212.294 24.8438C214.419 25.8437 215.903 26.3438 216.747 26.3438C217.559 26.3438 218.2 26.0938 218.669 25.5938C219.137 25.0937 219.575 23.8906 219.981 21.9844H221.387Z" fill="#FBE200"/>
</svg>
